<svg width="30px" height="30px" viewBox="0 0 30 31" fill="#FCF9F2" xmlns="http://www.w3.org/2000/svg">
<path d="M15.0033 7.47684C10.7468 7.47684 7.31344 10.911 7.31344 15.1685C7.31344 19.426 10.7468 22.8601 15.0033 22.8601C19.2599 22.8601 22.6933 19.426 22.6933 15.1685C22.6933 10.911 19.2599 7.47684 15.0033 7.47684ZM15.0033 20.169C12.2527 20.169 10.0039 17.9265 10.0039 15.1685C10.0039 12.4105 12.246 10.1679 15.0033 10.1679C17.7607 10.1679 20.0028 12.4105 20.0028 15.1685C20.0028 17.9265 17.754 20.169 15.0033 20.169V20.169ZM24.8015 7.16221C24.8015 8.15964 23.9983 8.95625 23.0078 8.95625C22.0106 8.95625 21.2142 8.15295 21.2142 7.16221C21.2142 6.17147 22.0173 5.36817 23.0078 5.36817C23.9983 5.36817 24.8015 6.17147 24.8015 7.16221ZM29.8946 8.98303C29.7808 6.57981 29.232 4.45106 27.4718 2.69719C25.7184 0.943309 23.5901 0.394386 21.1874 0.27389C18.7111 0.133313 11.2889 0.133313 8.81261 0.27389C6.41662 0.387692 4.28834 0.936615 2.52817 2.69049C0.767987 4.44437 0.225878 6.57312 0.10541 8.97633C-0.0351366 11.4532 -0.0351366 18.877 0.10541 21.3539C0.219186 23.7571 0.767987 25.8859 2.52817 27.6397C4.28834 29.3936 6.40993 29.9425 8.81261 30.063C11.2889 30.2036 18.7111 30.2036 21.1874 30.063C23.5901 29.9492 25.7184 29.4003 27.4718 27.6397C29.2253 25.8859 29.7741 23.7571 29.8946 21.3539C30.0351 18.877 30.0351 11.4599 29.8946 8.98303V8.98303ZM26.6955 24.0115C26.1735 25.3235 25.1629 26.3344 23.8444 26.8632C21.8701 27.6464 17.1852 27.4657 15.0033 27.4657C12.8215 27.4657 8.12995 27.6397 6.1623 26.8632C4.85053 26.3411 3.83993 25.3302 3.31121 24.0115C2.52817 22.0367 2.70887 17.3508 2.70887 15.1685C2.70887 12.9862 2.53486 8.29353 3.31121 6.32544C3.83324 5.01337 4.84384 4.00255 6.1623 3.47371C8.13664 2.69049 12.8215 2.87123 15.0033 2.87123C17.1852 2.87123 21.8767 2.69719 23.8444 3.47371C25.1562 3.99586 26.1668 5.00668 26.6955 6.32544C27.4785 8.30022 27.2978 12.9862 27.2978 15.1685C27.2978 17.3508 27.4785 22.0434 26.6955 24.0115Z" />
</svg>
