<svg width="20" height="25" viewBox="0 0 20 25" fill="none" xmlns="http://www.w3.org/2000/svg">
<path d="M10 4.6875C7.24297 4.6875 5 6.79028 5 9.375C5 11.9597 7.24297 14.0625 10 14.0625C12.757 14.0625 15 11.9597 15 9.375C15 6.79028 12.757 4.6875 10 4.6875ZM10 12.5C8.16198 12.5 6.66667 11.0981 6.66667 9.375C6.66667 7.65186 8.16198 6.25 10 6.25C11.838 6.25 13.3333 7.65186 13.3333 9.375C13.3333 11.0981 11.838 12.5 10 12.5ZM10 0C4.47714 0 0 4.19731 0 9.375C0 13.1549 1.40469 14.2105 8.97229 24.4956C9.46885 25.1681 10.5311 25.1682 11.0278 24.4956C18.5953 14.2105 20 13.1549 20 9.375C20 4.19731 15.5229 0 10 0ZM10 23.1412C2.74505 13.3051 1.66667 12.5241 1.66667 9.375C1.66667 7.28818 2.53349 5.32632 4.10745 3.85073C5.68141 2.37515 7.77406 1.5625 10 1.5625C12.2259 1.5625 14.3186 2.37515 15.8926 3.85073C17.4665 5.32632 18.3333 7.28818 18.3333 9.375C18.3333 12.5239 17.2556 13.3042 10 23.1412Z" fill="black"/>
</svg>
