<svg width="20" height="21" viewBox="0 0 20 21" fill="none" xmlns="http://www.w3.org/2000/svg">
<path d="M19.4296 14.6706L15.0546 12.7955C14.8677 12.7159 14.6599 12.6991 14.4627 12.7477C14.2654 12.7963 14.0893 12.9077 13.9608 13.0651L12.0233 15.4323C8.98248 13.9986 6.53535 11.5515 5.10165 8.51068L7.46888 6.57314C7.62657 6.44489 7.73818 6.26875 7.78681 6.07139C7.83545 5.87404 7.81846 5.66621 7.73841 5.47937L5.86338 1.10429C5.77553 0.902888 5.62016 0.738446 5.42406 0.639325C5.22795 0.540203 5.00341 0.512615 4.78914 0.561316L0.726575 1.49883C0.519997 1.54654 0.335687 1.66285 0.203728 1.82879C0.0717689 1.99474 -4.75872e-05 2.20051 2.36575e-08 2.41252C2.36575e-08 12.4322 8.12123 20.5378 18.1253 20.5378C18.3374 20.538 18.5433 20.4662 18.7093 20.3342C18.8753 20.2023 18.9917 20.0179 19.0394 19.8113L19.9769 15.7487C20.0253 15.5334 19.9971 15.3079 19.8972 15.1112C19.7973 14.9144 19.632 14.7586 19.4296 14.6706Z" fill="#FCF9F2"/>
</svg>
